<svg width="128" height="128" viewBox="0 0 128 128" fill="none" xmlns="http://www.w3.org/2000/svg">
  <rect width="128" height="128" rx="24" fill="#1F6FEB"/>
  <path d="M38 34C38 27.3726 43.3726 22 50 22C56.6274 22 62 27.3726 62 34C62 38.8655 59.1038 43.0547 54.9409 44.9396V55H75V44.9396C70.8962 43.0279 68 38.8655 68 34C68 27.3726 73.3726 22 80 22C86.6274 22 92 27.3726 92 34C92 38.8655 89.1038 43.0547 84.9409 44.9396V59C84.9409 62.3137 82.2546 65 78.9409 65H54.9409V83.0604C59.1038 84.9453 62 89.1345 62 94C62 100.627 56.6274 106 50 106C43.3726 106 38 100.627 38 94C38 89.1345 40.8962 84.9453 45.0591 83.0604V44.9396C40.8962 43.0547 38 38.8655 38 34Z" fill="white"/>
  <path d="M72 84H94V94H72V84Z" fill="#A5D6FF"/>
  <path d="M72 68H102V78H72V68Z" fill="#A5D6FF"/>
</svg>
